<?xml version="1.0" encoding="UTF-8"?>
<svg width="20px" height="20px" viewBox="0 0 20 20" version="1.1" xmlns="http://www.w3.org/2000/svg" xmlns:xlink="http://www.w3.org/1999/xlink">
    <!-- Generator: Sketch 51.3 (57544) - http://www.bohemiancoding.com/sketch -->
    <title>logout-primary</title>
    <desc>Created with Sketch.</desc>
    <defs></defs>
    <g id="logout-primary" stroke="none" stroke-width="1" fill="none" fill-rule="evenodd">
        <g id="noun_logout_945406" transform="translate(2.000000, 0.000000)" fill="#ffffff" fill-rule="nonzero">
            <path d="M1.54545455,0.0796 C0.700729403,0.0796 0,0.777158242 0,1.61806154 L0,18.3213582 C0,19.1622593 0.700729403,19.8598198 1.54545455,19.8598198 L7.28571429,19.8598198 C8.13043943,19.8598198 8.83116883,19.1622593 8.83116883,18.3213582 L8.83116883,14.8048747 C8.83454695,14.5670928 8.70905013,14.34592 8.50273357,14.2260477 C8.29641701,14.1061753 8.04124533,14.1061753 7.83492877,14.2260477 C7.62861221,14.34592 7.50311539,14.5670928 7.50649351,14.8048747 L7.50649351,18.3213582 C7.50649351,18.4545231 7.41948221,18.5411385 7.28571429,18.5411385 L1.54545455,18.5411385 C1.41168662,18.5411385 1.32467532,18.4545231 1.32467532,18.3213582 L1.32467532,1.61806154 C1.32467532,1.4848989 1.41168662,1.39828132 1.54545455,1.39828132 L7.28571429,1.39828132 C7.41948221,1.39828132 7.50649351,1.4848989 7.50649351,1.61806154 L7.50649351,5.13454505 C7.50311539,5.37232698 7.62861221,5.5934998 7.83492877,5.71337212 C8.04124533,5.83324445 8.29641701,5.83324445 8.50273357,5.71337212 C8.70905013,5.5934998 8.83454695,5.37232698 8.83116883,5.13454505 L8.83116883,1.61806154 C8.83116883,0.777158242 8.13043943,0.0796 7.28571429,0.0796 L1.54545455,0.0796 Z M11.6254058,5.56723736 C11.3803088,5.59248068 11.1695432,5.75106818 11.0782803,5.97891389 C10.9870175,6.2067596 11.0303422,6.46620317 11.1907468,6.6524022 L13.3916396,9.31036923 L2.87012987,9.31036923 C2.84714765,9.30917616 2.82411858,9.30917616 2.80113636,9.31036923 C2.56447636,9.32259846 2.35235247,9.45959814 2.24468589,9.66975135 C2.1370193,9.87990456 2.15017109,10.1312763 2.2791861,10.3291581 C2.40820111,10.52704 2.63347415,10.6413616 2.87012987,10.6290505 L13.3916396,10.6290505 L11.1907468,13.2870176 C11.0266498,13.4670136 10.9753329,13.7222821 11.0572093,13.95128 C11.1390858,14.1802779 11.340877,14.3458666 11.5823126,14.3821767 C11.8237482,14.4184869 12.0656725,14.3196298 12.2118506,14.1249297 L15.3027597,10.3886659 C15.5039347,10.14526 15.5039347,9.79415978 15.3027597,9.55075385 L12.2118506,5.81449011 C12.0716053,5.63779377 11.8504747,5.54456226 11.6254058,5.56723736 Z" id="Shape"></path>
        </g>
    </g>
</svg>